<?xml version="1.0" standalone="no"?>
<!DOCTYPE svg PUBLIC "-//W3C//DTD SVG 20010904//EN"
 "http://www.w3.org/TR/2001/REC-SVG-20010904/DTD/svg10.dtd">
<svg version="1.0" xmlns="http://www.w3.org/2000/svg"
 width="25.000000pt" height="25.000000pt" viewBox="0 0 337.000000 434.000000"
 preserveAspectRatio="xMidYMid meet">

<g transform="translate(0.000000,434.000000) scale(0.100000,-0.100000)"
fill="#000000" stroke="none">
<path d="M1280 3252 l0 -177 -62 -65 c-101 -106 -165 -251 -204 -465 -23 -126
-27 -591 -6 -720 38 -230 97 -370 203 -477 l69 -71 0 -168 0 -169 120 0 120 0
0 123 0 122 90 -3 90 -3 0 -120 0 -119 120 0 120 0 0 160 0 161 66 61 c149
140 223 352 243 704 5 80 7 171 6 202 -2 31 -7 100 -10 152 -12 191 -48 345
-113 480 -27 56 -57 95 -114 153 l-78 78 0 170 0 169 -120 0 -120 0 0 -130 0
-130 -74 0 c-41 0 -81 -3 -90 -6 -14 -5 -16 10 -16 130 l0 136 -120 0 -120 0
0 -178z m435 -421 c37 -21 68 -66 95 -137 38 -102 45 -184 45 -519 0 -344 -11
-451 -56 -556 -68 -157 -256 -171 -339 -25 -60 104 -80 271 -75 631 6 438 49
583 185 623 43 13 105 6 145 -17z"/>
</g>
</svg>
